HIERARCHY
ROOT Hips
{
	OFFSET 0.000000 71.427986 0.000000
	CHANNELS 6 Xposition Yposition Zposition Xrotation Yrotation Zrotation
	JOINT Pelvis
	{
		OFFSET 0.000000 0.000000 0.000000
		CHANNELS 3 Xrotation Yrotation Zrotation
		JOINT LeftUpLeg
		{
			OFFSET 6.797100 -2.508499 -1.318700
			CHANNELS 3 Xrotation Yrotation Zrotation
			JOINT LeftLeg
			{
				OFFSET 0.069008 -29.241863 0.690200
				CHANNELS 3 Xrotation Yrotation Zrotation
				JOINT LeftFoot
				{
					OFFSET -0.069008 -29.568123 -0.266800
					CHANNELS 3 Xrotation Yrotation Zrotation
					JOINT LeftToeBase
					{
						OFFSET 3.145500 -8.631000 16.059900
						CHANNELS 3 Xrotation Yrotation Zrotation
						End Site
						{
							OFFSET 0.000000 18.501587 0.000000
						}
					}
				}
			}
			JOINT Left_ShortSleeve
			{
				OFFSET 0.265923 -10.480953 1.153800
				CHANNELS 3 Xrotation Yrotation Zrotation
				End Site
				{
					OFFSET 1.725763 19.823879 0.000000
				}
			}
		}
		JOINT RightUpLeg
		{
			OFFSET -6.797100 -2.508499 -1.318700
			CHANNELS 3 Xrotation Yrotation Zrotation
			JOINT RightLeg
			{
				OFFSET -0.082453 -29.241932 0.688000
				CHANNELS 3 Xrotation Yrotation Zrotation
				JOINT RightFoot
				{
					OFFSET 0.082453 -29.568058 -0.264600
					CHANNELS 3 Xrotation Yrotation Zrotation
					JOINT RightToeBase
					{
						OFFSET -3.115300 -8.682800 16.113400
						CHANNELS 3 Xrotation Yrotation Zrotation
						End Site
						{
							OFFSET 0.000000 18.567114 0.000000
						}
					}
				}
			}
			JOINT Right_ShortSleeve
			{
				OFFSET -0.265923 -10.480953 1.153800
				CHANNELS 3 Xrotation Yrotation Zrotation
				End Site
				{
					OFFSET -1.725766 19.823910 0.000000
				}
			}
		}
	}
	JOINT Spine
	{
		OFFSET 0.000000 13.368103 0.470500
		CHANNELS 3 Xrotation Yrotation Zrotation
		JOINT Spine1
		{
			OFFSET 0.147000 13.837402 0.538800
			CHANNELS 3 Xrotation Yrotation Zrotation
			JOINT Spine2
			{
				OFFSET 0.168000 16.242897 -1.435500
				CHANNELS 3 Xrotation Yrotation Zrotation
				JOINT Neck
				{
					OFFSET 0.217200 18.631500 -1.679100
					CHANNELS 3 Xrotation Yrotation Zrotation
					JOINT Head
					{
						OFFSET 0.000000 6.599396 1.385900
						CHANNELS 3 Xrotation Yrotation Zrotation
						JOINT Hat
						{
							OFFSET -0.532200 27.220596 -10.096100
							CHANNELS 3 Xrotation Yrotation Zrotation
							End Site
							{
								OFFSET 0.000000 22.029861 0.000000
							}
						}
						JOINT HairD
						{
							OFFSET -10.777400 17.437393 -1.325900
							CHANNELS 3 Xrotation Yrotation Zrotation
							JOINT HairD1
							{
								OFFSET -3.290299 -11.051193 1.062200
								CHANNELS 3 Xrotation Yrotation Zrotation
								End Site
								{
									OFFSET 0.000000 11.579437 0.000000
								}
							}
						}
						JOINT HairB
						{
							OFFSET -10.777400 17.437393 1.467900
							CHANNELS 3 Xrotation Yrotation Zrotation
							JOINT HairB1
							{
								OFFSET -1.561200 -12.956299 3.590200
								CHANNELS 3 Xrotation Yrotation Zrotation
								End Site
								{
									OFFSET 0.000000 13.534866 0.000000
								}
							}
						}
						JOINT HairA
						{
							OFFSET 9.713100 17.437393 1.467900
							CHANNELS 3 Xrotation Yrotation Zrotation
							JOINT HairA1
							{
								OFFSET 1.561200 -12.956299 3.590200
								CHANNELS 3 Xrotation Yrotation Zrotation
								End Site
								{
									OFFSET 0.000000 13.534866 0.000000
								}
							}
						}
						JOINT HairC
						{
							OFFSET 9.713100 17.437393 -1.325900
							CHANNELS 3 Xrotation Yrotation Zrotation
							JOINT HairC1
							{
								OFFSET 3.290300 -11.051193 1.062200
								CHANNELS 3 Xrotation Yrotation Zrotation
								End Site
								{
									OFFSET 0.000000 11.579437 0.000000
								}
							}
						}
					}
				}
				JOINT LeftShoulder
				{
					OFFSET 5.101800 15.108002 -2.763700
					CHANNELS 3 Xrotation Yrotation Zrotation
					JOINT LeftArm
					{
						OFFSET 9.825497 2.506317 -1.597400
						CHANNELS 3 Xrotation Yrotation Zrotation
						JOINT LeftForeArm
						{
							OFFSET 21.966244 0.000000 0.000000
							CHANNELS 3 Xrotation Yrotation Zrotation
							JOINT LeftHand
							{
								OFFSET 33.879036 0.000000 0.000000
								CHANNELS 3 Xrotation Yrotation Zrotation
								JOINT LeftHandThumb1
								{
									OFFSET 6.715286 -2.359680 3.363841
									CHANNELS 3 Xrotation Yrotation Zrotation
									JOINT LeftHandThumb2
									{
										OFFSET 2.507072 -1.447464 1.447461
										CHANNELS 3 Xrotation Yrotation Zrotation
										JOINT LeftHandThumb3
										{
											OFFSET 2.898338 -1.673355 1.673357
											CHANNELS 3 Xrotation Yrotation Zrotation
											End Site
											{
												OFFSET -0.295959 3.727692 -0.131651
											}
										}
									}
								}
								JOINT LeftHandIndex1
								{
									OFFSET 14.190811 -0.254547 3.840278
									CHANNELS 3 Xrotation Yrotation Zrotation
									JOINT LeftHandIndex2
									{
										OFFSET 3.551727 0.000000 -0.000000
										CHANNELS 3 Xrotation Yrotation Zrotation
										JOINT LeftHandIndex3
										{
											OFFSET 2.894196 0.000000 0.000000
											CHANNELS 3 Xrotation Yrotation Zrotation
											End Site
											{
												OFFSET -1.000603 2.690872 0.366626
											}
										}
									}
								}
								JOINT LeftHandMiddle1
								{
									OFFSET 13.776489 0.000000 0.000000
									CHANNELS 3 Xrotation Yrotation Zrotation
									JOINT LeftHandMiddle2
									{
										OFFSET 3.438232 0.000000 0.000000
										CHANNELS 3 Xrotation Yrotation Zrotation
										JOINT LeftHandMiddle3
										{
											OFFSET 3.691551 0.000000 0.000000
											CHANNELS 3 Xrotation Yrotation Zrotation
											End Site
											{
												OFFSET -1.082298 3.499527 0.457670
											}
										}
									}
								}
								JOINT LeftHandRing1
								{
									OFFSET 13.966164 -0.268127 -3.067488
									CHANNELS 3 Xrotation Yrotation Zrotation
									JOINT LeftHandRing2
									{
										OFFSET 3.162567 0.000000 0.000000
										CHANNELS 3 Xrotation Yrotation Zrotation
										JOINT LeftHandRing3
										{
											OFFSET 3.324348 0.000000 0.000000
											CHANNELS 3 Xrotation Yrotation Zrotation
											End Site
											{
												OFFSET -0.861900 3.184998 0.405154
											}
										}
									}
								}
								JOINT LeftHandPinky1
								{
									OFFSET 13.131393 -0.168503 -5.746925
									CHANNELS 3 Xrotation Yrotation Zrotation
									JOINT LeftHandPinky2
									{
										OFFSET 2.849182 0.000000 0.000000
										CHANNELS 3 Xrotation Yrotation Zrotation
										JOINT LeftHandPinky3
										{
											OFFSET 2.805038 0.000000 0.000000
											CHANNELS 3 Xrotation Yrotation Zrotation
											End Site
											{
												OFFSET -0.882500 2.642609 0.325652
											}
										}
									}
								}
							}
							JOINT Left_Sleeve
							{
								OFFSET 6.592125 -0.646545 0.805568
								CHANNELS 3 Xrotation Yrotation Zrotation
								End Site
								{
									OFFSET -0.000179 20.275787 -0.000000
								}
							}
						}
					}
				}
				JOINT RightShoulder
				{
					OFFSET -5.731700 15.108002 -2.763700
					CHANNELS 3 Xrotation Yrotation Zrotation
					JOINT RightArm
					{
						OFFSET -9.825497 2.506317 -1.597400
						CHANNELS 3 Xrotation Yrotation Zrotation
						JOINT RightForeArm
						{
							OFFSET -21.966242 0.000000 0.000000
							CHANNELS 3 Xrotation Yrotation Zrotation
							JOINT RightHand
							{
								OFFSET -33.879032 0.000000 0.000000
								CHANNELS 3 Xrotation Yrotation Zrotation
								JOINT RightHandThumb1
								{
									OFFSET -6.715286 -2.359680 3.363841
									CHANNELS 3 Xrotation Yrotation Zrotation
									JOINT RightHandThumb2
									{
										OFFSET -2.507072 -1.447464 1.447461
										CHANNELS 3 Xrotation Yrotation Zrotation
										JOINT RightHandThumb3
										{
											OFFSET -2.898338 -1.673355 1.673357
											CHANNELS 3 Xrotation Yrotation Zrotation
											End Site
											{
												OFFSET 0.295959 3.727692 -0.131651
											}
										}
									}
								}
								JOINT RightHandIndex1
								{
									OFFSET -14.190811 -0.254547 3.840278
									CHANNELS 3 Xrotation Yrotation Zrotation
									JOINT RightHandIndex2
									{
										OFFSET -3.551727 0.000000 -0.000000
										CHANNELS 3 Xrotation Yrotation Zrotation
										JOINT RightHandIndex3
										{
											OFFSET -2.894196 0.000000 0.000000
											CHANNELS 3 Xrotation Yrotation Zrotation
											End Site
											{
												OFFSET 1.000603 2.690872 0.366626
											}
										}
									}
								}
								JOINT RightHandMiddle1
								{
									OFFSET -13.776489 0.000000 0.000000
									CHANNELS 3 Xrotation Yrotation Zrotation
									JOINT RightHandMiddle2
									{
										OFFSET -3.438232 0.000000 0.000000
										CHANNELS 3 Xrotation Yrotation Zrotation
										JOINT RightHandMiddle3
										{
											OFFSET -3.691551 0.000000 0.000000
											CHANNELS 3 Xrotation Yrotation Zrotation
											End Site
											{
												OFFSET 1.082298 3.499527 0.457670
											}
										}
									}
								}
								JOINT RightHandRing1
								{
									OFFSET -13.966164 -0.268127 -3.067488
									CHANNELS 3 Xrotation Yrotation Zrotation
									JOINT RightHandRing2
									{
										OFFSET -3.162567 0.000000 0.000000
										CHANNELS 3 Xrotation Yrotation Zrotation
										JOINT RightHandRing3
										{
											OFFSET -3.324348 0.000000 0.000000
											CHANNELS 3 Xrotation Yrotation Zrotation
											End Site
											{
												OFFSET 0.861900 3.184998 0.405154
											}
										}
									}
								}
								JOINT RightHandPinky1
								{
									OFFSET -13.131393 -0.168503 -5.746925
									CHANNELS 3 Xrotation Yrotation Zrotation
									JOINT RightHandPinky2
									{
										OFFSET -2.849182 0.000000 0.000000
										CHANNELS 3 Xrotation Yrotation Zrotation
										JOINT RightHandPinky3
										{
											OFFSET -2.805038 0.000000 0.000000
											CHANNELS 3 Xrotation Yrotation Zrotation
											End Site
											{
												OFFSET 0.882500 2.642609 0.325652
											}
										}
									}
								}
							}
							JOINT Right_Sleeve
							{
								OFFSET -6.592125 -0.646545 0.805568
								CHANNELS 3 Xrotation Yrotation Zrotation
								End Site
								{
									OFFSET 0.000179 20.275787 -0.000000
								}
							}
						}
					}
				}
				JOINT Bind_Right_JacketString
				{
					OFFSET -3.534800 11.969597 7.200700
					CHANNELS 3 Xrotation Yrotation Zrotation
					JOINT Bind_Right_JacketString1
					{
						OFFSET -0.319900 -6.102600 2.794100
						CHANNELS 3 Xrotation Yrotation Zrotation
						End Site
						{
							OFFSET 0.000000 6.719452 0.000000
						}
					}
				}
				JOINT Bind_Left_JacketString
				{
					OFFSET 2.904800 11.969597 7.200700
					CHANNELS 3 Xrotation Yrotation Zrotation
					JOINT Bind_Left_JacketString1
					{
						OFFSET 0.364800 -5.904503 3.186800
						CHANNELS 3 Xrotation Yrotation Zrotation
						End Site
						{
							OFFSET 0.000000 6.719513 0.000000
						}
					}
				}
				JOINT HairE
				{
					OFFSET 5.915200 17.612701 -11.592200
					CHANNELS 3 Xrotation Yrotation Zrotation
					JOINT HairE1
					{
						OFFSET 0.289200 -7.171898 -1.284500
						CHANNELS 3 Xrotation Yrotation Zrotation
						End Site
						{
							OFFSET 0.000000 7.291756 0.000000
						}
					}
				}
				JOINT HairF
				{
					OFFSET -0.864800 17.612701 -11.592200
					CHANNELS 3 Xrotation Yrotation Zrotation
					JOINT HairF1
					{
						OFFSET 0.000000 -14.087097 -2.127501
						CHANNELS 3 Xrotation Yrotation Zrotation
						End Site
						{
							OFFSET 0.000000 14.246841 0.000000
						}
					}
				}
				JOINT HairG
				{
					OFFSET -8.087700 17.612701 -11.592200
					CHANNELS 3 Xrotation Yrotation Zrotation
					JOINT HairG1
					{
						OFFSET -0.293600 -6.081398 -0.910100
						CHANNELS 3 Xrotation Yrotation Zrotation
						End Site
						{
							OFFSET 0.000000 6.156120 0.000000
						}
					}
				}
			}
		}
	}
	JOINT Pouch
	{
		OFFSET 0.000000 4.394501 10.847300
		CHANNELS 3 Xrotation Yrotation Zrotation
		End Site
		{
			OFFSET 0.000000 21.880577 0.000000
		}
	}
	JOINT Bag
	{
		OFFSET -13.229000 4.813004 -0.593300
		CHANNELS 3 Xrotation Yrotation Zrotation
		End Site
		{
			OFFSET 0.000000 21.880577 0.000000
		}
	}
	JOINT OccupyGuyFacialAnim_Joint
	{
		OFFSET 1.000000 -70.206398 -1.655000
		CHANNELS 3 Xrotation Yrotation Zrotation
		End Site
		{
			OFFSET 0.000000 21.880577 0.000000
		}
	}
}
MOTION
Frames: 4
Frame Time: 0.033333
0.039773 35.134750 1.064261 0.290782 0.673325 0.771952 -0.000000 0.000000 -0.000000 -5.997680 1.507720 13.645234 108.367802 18.133063 1.902664 23.843198 -0.122981 -12.817409 -0.000003 -0.000001 0.000000 0.000000 -0.000000 -0.000000 -4.253431 -4.800359 -13.347473 108.733832 -5.371325 -0.704714 14.706963 0.499700 8.295857 -0.000001 -0.000000 0.000001 -0.000000 0.000000 -0.000001 1.223820 0.309194 -0.013864 0.109968 0.089115 -0.089427 0.111944 0.089452 -0.088837 -0.405267 0.001168 0.119094 -1.120444 0.501906 0.198295 0.000000 0.000000 -0.000000 0.000000 0.000000 -0.000000 0.000000 0.000000 -0.000000 0.000000 0.000000 -0.000000 -0.000000 0.000000 -0.000000 0.000000 0.000000 -0.000000 -0.000000 0.000000 -0.000000 0.000000 0.000000 -0.000000 0.000000 0.000000 -0.000000 0.615072 -3.302989 -22.050303 11.518749 -16.422370 -52.954119 -0.000003 -20.359780 -0.000004 -6.756514 11.925328 -5.301482 -8.153167 -14.752814 10.519580 11.519473 33.944900 -1.835869 0.000001 -0.000000 0.000001 -0.449791 -5.309466 -4.186049 0.332387 1.947017 -19.374112 0.000002 0.000000 0.000002 -0.402232 -0.925068 -7.467173 1.035718 3.327682 -34.568544 -0.000000 0.000001 -0.000003 -0.149017 2.816123 -20.132637 0.105346 1.107142 -10.870281 -0.000002 0.000000 0.000001 -7.744275 8.981006 -14.644083 0.588627 2.561290 -25.881750 -0.000000 -0.000001 -0.000004 0.000000 -0.000000 -0.000000 -0.107600 9.897993 22.055497 7.744612 7.016050 56.239115 -0.000003 19.886640 0.000006 -2.758065 -6.082039 1.886860 -17.666617 6.244938 -1.520694 -4.151494 -35.474985 -9.895044 -0.000000 0.000000 0.000001 13.525878 5.014496 9.944382 0.129605 -1.092217 13.534811 0.000000 -0.000002 -0.000002 -0.132116 -1.098152 7.057253 0.786470 -2.591743 33.756130 0.000000 0.000000 -0.000001 0.541320 -5.200321 11.265145 0.534418 -2.168006 27.691776 0.000002 0.000000 -0.000003 -12.472583 -16.714098 10.990097 0.316055 -1.688026 21.208485 -0.000000 0.000000 -0.000001 -0.000002 0.000000 -0.000000 -0.000000 0.000000 -0.000000 -0.000000 0.000000 0.000000 -0.000000 0.000000 0.000000 -0.000000 0.000000 0.000000 -0.000000 0.000000 -0.000000 -0.000000 0.000000 0.000000 -0.000000 0.000000 0.000000 -0.000000 0.000000 0.000000 -0.000000 0.000000 -0.000000 -0.000000 0.000000 0.000000 -0.000000 0.000000 -0.000000 -0.000000 0.000000 -0.000000 -0.000000 0.000000 -0.000000 
0.039774 35.134987 1.063982 0.290782 0.673325 0.771952 -0.000000 0.000000 -0.000000 -5.997770 1.507681 13.645236 108.367720 18.132590 1.902658 23.842951 -0.123017 -12.817774 -0.000002 0.000002 -0.000001 -0.000000 0.000000 -0.000000 -4.253547 -4.800302 -13.347498 108.733729 -5.370835 -0.704707 14.706780 0.499739 8.296246 -0.000001 0.000000 -0.000000 -0.000000 -0.000000 0.000000 1.223820 0.309194 -0.013864 0.159478 0.089115 -0.089427 0.117973 0.089452 -0.088837 -0.405268 0.001169 0.119094 -1.133327 0.501880 0.198295 -0.000000 0.000000 -0.000000 -0.000000 0.000000 -0.000000 -0.000000 0.000000 -0.000000 -0.000000 0.000000 -0.000000 -0.000000 0.000000 -0.000000 -0.000000 0.000000 -0.000000 -0.000000 0.000000 -0.000000 -0.000000 0.000000 -0.000000 -0.000000 0.000000 -0.000000 0.615320 -3.302942 -22.045988 11.518804 -16.400280 -52.953958 -0.000005 -20.373334 0.000001 -6.744440 11.925341 -5.316139 -8.147739 -14.732218 10.527001 11.519472 33.944900 -1.835870 -0.000001 -0.000000 -0.000001 -0.453202 -5.306628 -4.211525 0.333268 1.949500 -19.399742 0.000001 0.000001 -0.000002 -0.404561 -0.931904 -7.487943 1.034880 3.326458 -34.553985 0.000001 0.000001 -0.000001 -0.148984 2.816576 -20.136905 0.105747 1.109256 -10.891283 -0.000003 0.000001 -0.000001 -7.742612 8.984506 -14.658655 0.589297 2.562668 -25.896666 -0.000001 -0.000001 0.000005 -0.000001 -0.000001 0.000000 -0.103607 9.898036 22.032264 7.744709 7.035352 56.238401 -0.000000 19.896052 -0.000002 -2.757020 -6.082527 1.896685 -17.666178 6.241332 -1.521441 -4.151495 -35.474981 -9.895044 -0.000000 -0.000001 0.000004 13.523980 5.013720 9.964256 0.129623 -1.092215 13.534822 0.000001 0.000001 0.000002 -0.132738 -1.100755 7.087988 0.784679 -2.589066 33.716566 -0.000000 0.000000 -0.000002 0.543037 -5.202748 11.298656 0.530526 -2.160591 27.588929 -0.000002 -0.000000 -0.000001 -12.466134 -16.714759 11.023937 0.314023 -1.682791 21.139482 -0.000001 0.000002 -0.000001 -0.000000 -0.000001 0.000000 -0.000000 -0.000000 -0.000000 0.000000 -0.000000 -0.000000 -0.000000 -0.000000 -0.000000 -0.000000 -0.000000 -0.000000 -0.000000 -0.000000 -0.000000 0.000000 -0.000000 -0.000000 -0.000000 -0.000000 -0.000000 -0.000000 -0.000000 -0.000000 -0.000000 -0.000000 -0.000000 0.000000 -0.000000 -0.000000 -0.000000 0.000000 -0.000000 -0.000000 0.000000 -0.000000 -0.000000 0.000000 -0.000000 
0.039770 35.135666 1.063168 0.290782 0.673325 0.771952 -0.000000 0.000000 -0.000000 -5.998023 1.507648 13.645038 108.367529 18.131215 1.902634 23.842155 -0.123135 -12.818756 -0.000001 -0.000000 -0.000001 -0.000001 0.000000 -0.000001 -4.254098 -4.800052 -13.347629 108.732951 -5.368484 -0.704690 14.708104 0.499836 8.297903 0.000000 0.000001 -0.000001 -0.000000 0.000000 -0.000000 1.218719 0.309206 -0.013886 0.201522 0.089115 -0.089427 0.141500 0.089452 -0.088837 -0.405267 0.001169 0.119094 -1.146097 0.501852 0.198294 0.000000 0.000000 0.000000 0.000000 0.000000 0.000000 0.000000 0.000000 0.000000 0.000000 0.000000 -0.000000 -0.000000 -0.000000 0.000000 0.000000 0.000000 -0.000000 -0.000000 -0.000000 0.000000 0.000000 0.000000 0.000000 0.000000 0.000000 0.000000 0.616275 -3.302765 -22.029395 11.522059 -16.349439 -52.964637 -0.000012 -20.412039 -0.000048 -6.722855 11.927787 -5.357877 -8.130560 -14.671304 10.548390 11.519467 33.944896 -1.835866 -0.000002 0.000002 0.000002 -0.452646 -5.299072 -4.285476 0.335794 1.956696 -19.474316 0.000001 -0.000000 0.000003 -0.411452 -0.951952 -7.549593 1.032419 3.322897 -34.511658 -0.000001 0.000000 0.000003 -0.148843 2.818368 -20.153803 0.106939 1.115431 -10.952645 -0.000002 0.000001 -0.000003 -7.738672 8.991000 -14.702298 0.591264 2.566703 -25.940640 0.000000 0.000000 0.000003 0.000001 0.000001 -0.000001 -0.095999 9.894261 22.009234 7.744965 7.089119 56.236356 -0.000003 19.922991 0.000009 -2.754016 -6.083875 1.925072 -17.664474 6.227222 -1.524409 -4.151492 -35.474978 -9.895045 0.000000 -0.000001 0.000002 13.519136 5.007727 10.021948 0.129617 -1.092223 13.534798 0.000004 -0.000001 0.000000 -0.134559 -1.108255 7.176495 0.779614 -2.581460 33.604186 -0.000002 -0.000000 -0.000001 0.547968 -5.209738 11.395048 0.519580 -2.139524 27.297146 -0.000002 0.000000 -0.000002 -12.447638 -16.716637 11.121245 0.308306 -1.667909 20.943679 0.000001 0.000001 -0.000003 0.000002 0.000001 0.000000 -0.000000 0.000000 -0.000000 0.000000 -0.000000 -0.000000 -0.000000 0.000000 0.000000 -0.000000 0.000000 0.000000 -0.000000 0.000000 -0.000000 0.000000 -0.000000 -0.000000 -0.000000 0.000000 0.000000 -0.000000 0.000000 0.000000 -0.000000 0.000000 -0.000000 0.000000 -0.000000 -0.000000 -0.000000 0.000000 -0.000000 -0.000000 0.000000 -0.000000 -0.000000 0.000000 -0.000000 
0.039758 35.136742 1.061861 0.290782 0.673325 0.771952 -0.000000 0.000000 -0.000000 -5.998354 1.507671 13.644125 108.367194 18.128948 1.902586 23.840938 -0.123294 -12.820319 0.000001 0.000000 -0.000001 0.000001 0.000000 -0.000000 -4.254392 -4.793782 -13.347903 108.732889 -5.366693 -0.699599 14.710409 0.499857 8.299096 -0.000001 0.000000 -0.000000 -0.000000 0.000000 -0.000000 1.204410 0.309225 -0.013935 0.236416 0.089115 -0.089427 0.179427 0.089452 -0.088837 -0.405268 0.001168 0.119094 -1.158706 0.501827 0.198295 0.000000 -0.000000 -0.000000 0.000000 -0.000000 -0.000000 0.000000 -0.000000 -0.000000 0.000000 -0.000000 -0.000000 0.000000 -0.000000 -0.000000 0.000000 -0.000000 -0.000000 0.000000 -0.000000 -0.000000 0.000000 -0.000000 -0.000000 0.000000 -0.000000 -0.000000 0.617805 -3.302435 -22.003198 11.530278 -16.269154 -52.970258 -0.000008 -20.472987 -0.000041 -6.694730 11.923331 -5.425507 -8.108248 -14.571486 10.578761 11.519467 33.944893 -1.835867 -0.000000 0.000002 0.000001 -0.451736 -5.286922 -4.404764 0.339917 1.968269 -19.594267 0.000003 0.000001 -0.000002 -0.422712 -0.984262 -7.649194 1.028478 3.317160 -34.443558 0.000000 0.000001 0.000001 -0.148637 2.821264 -20.181034 0.108874 1.125372 -11.051509 0.000001 0.000000 -0.000001 -7.733508 8.996970 -14.773653 0.594438 2.573217 -26.011500 0.000000 -0.000001 -0.000002 0.000000 -0.000001 0.000000 -0.083122 9.883564 21.986592 7.745891 7.171618 56.228904 -0.000002 19.965920 -0.000018 -2.749206 -6.086032 1.970412 -17.659673 6.206152 -1.533036 -4.151496 -35.474988 -9.895050 0.000000 0.000001 0.000003 13.511431 4.998199 10.113836 0.129829 -1.093113 13.546232 -0.000000 0.000001 -0.000005 -0.137440 -1.120200 7.317430 0.771713 -2.569541 33.428407 -0.000002 0.000001 -0.000001 0.555822 -5.220854 11.548570 0.502672 -2.106464 26.840705 -0.000001 -0.000000 -0.000002 -12.418019 -16.719642 11.277512 0.299446 -1.644600 20.637312 -0.000000 0.000001 0.000001 0.000002 -0.000001 -0.000000 0.000000 -0.000000 0.000000 0.000000 -0.000000 0.000000 0.000000 -0.000000 0.000000 0.000000 -0.000000 0.000000 0.000000 -0.000000 0.000000 0.000000 -0.000000 0.000000 0.000000 -0.000000 0.000000 0.000000 -0.000000 0.000000 0.000000 -0.000000 0.000000 0.000000 -0.000000 0.000000 -0.000000 0.000000 -0.000000 -0.000000 0.000000 -0.000000 -0.000000 0.000000 -0.000000 
